<svg width="700pt" height="700pt" version="1.1" viewBox="0 0 700 700" xmlns="http://www.w3.org/2000/svg" xmlns:xlink="http://www.w3.org/1999/xlink">
 <defs>
  <symbol id="v" overflow="visible">
   <path d="m1.8281-0.10938c-0.09375 0.054688-0.19531 0.089844-0.29688 0.10938-0.09375 0.019531-0.19922 0.03125-0.3125 0.03125-0.33594 0-0.60156-0.085938-0.79688-0.26562-0.1875-0.1875-0.28125-0.44141-0.28125-0.76562 0-0.3125 0.09375-0.5625 0.28125-0.75 0.19531-0.1875 0.46094-0.28125 0.79688-0.28125 0.11328 0 0.21875 0.015625 0.3125 0.046875 0.10156 0.023437 0.20312 0.058594 0.29688 0.10938v0.40625c-0.09375-0.0625-0.1875-0.10938-0.28125-0.14062s-0.19531-0.046875-0.29688-0.046875c-0.17969 0-0.32031 0.0625-0.42188 0.1875-0.10547 0.11719-0.15625 0.27344-0.15625 0.46875 0 0.21094 0.050781 0.375 0.15625 0.5 0.10156 0.11719 0.24219 0.17188 0.42188 0.17188 0.10156 0 0.20312-0.015625 0.29688-0.046875s0.1875-0.078125 0.28125-0.14062z"/>
  </symbol>
  <symbol id="f" overflow="visible">
   <path d="m1.3438-1.0938c-0.042969-0.019531-0.085938-0.03125-0.125-0.03125-0.042969-0.007812-0.085938-0.015625-0.125-0.015625-0.125 0-0.22656 0.042969-0.29688 0.125-0.0625 0.074219-0.09375 0.18359-0.09375 0.32812v0.6875h-0.46875v-1.5h0.46875v0.25c0.0625-0.09375 0.12891-0.16016 0.20312-0.20312 0.082031-0.050781 0.17969-0.078125 0.29688-0.078125h0.046875c0.019531 0 0.050781 0.007812 0.09375 0.015625z"/>
  </symbol>
  <symbol id="a" overflow="visible">
   <path d="m1.7188-0.75v0.14062h-1.1094c0.007813 0.10547 0.046875 0.1875 0.10938 0.25 0.070312 0.054687 0.17188 0.078125 0.29688 0.078125 0.10156 0 0.20703-0.015625 0.3125-0.046875 0.10156-0.03125 0.21094-0.070313 0.32812-0.125v0.35938c-0.11719 0.042969-0.23047 0.074219-0.34375 0.09375-0.11719 0.019531-0.23047 0.03125-0.34375 0.03125-0.27344 0-0.48047-0.066406-0.625-0.20312-0.14844-0.13281-0.21875-0.32812-0.21875-0.57812 0-0.23828 0.070312-0.42578 0.21875-0.5625 0.14453-0.14453 0.34766-0.21875 0.60938-0.21875 0.22656 0 0.41016 0.074219 0.54688 0.21875 0.14453 0.13672 0.21875 0.32422 0.21875 0.5625zm-0.48438-0.15625c0-0.09375-0.027344-0.16406-0.078125-0.21875-0.054688-0.0625-0.125-0.09375-0.21875-0.09375-0.085938 0-0.15625 0.027344-0.21875 0.078125-0.0625 0.054687-0.10156 0.13281-0.10938 0.23438z"/>
  </symbol>
  <symbol id="e" overflow="visible">
   <path d="m0.90625-0.67188c-0.10547 0-0.18359 0.015625-0.23438 0.046875-0.054687 0.03125-0.078125 0.085938-0.078125 0.15625 0 0.0625 0.019531 0.10938 0.0625 0.14062 0.039062 0.03125 0.097656 0.046875 0.17188 0.046875 0.09375 0 0.16406-0.03125 0.21875-0.09375 0.0625-0.0625 0.09375-0.14453 0.09375-0.25v-0.046875zm0.71875-0.1875v0.85938h-0.48438v-0.21875c-0.0625 0.09375-0.13672 0.16406-0.21875 0.20312-0.074219 0.03125-0.16797 0.046875-0.28125 0.046875-0.15625 0-0.28125-0.039062-0.375-0.125-0.09375-0.09375-0.14062-0.21094-0.14062-0.35938 0-0.17578 0.054688-0.30078 0.17188-0.375 0.125-0.082031 0.3125-0.125 0.5625-0.125h0.28125v-0.046875c0-0.070312-0.03125-0.125-0.09375-0.15625-0.054687-0.039062-0.14062-0.0625-0.26562-0.0625-0.10547 0-0.20312 0.011719-0.29688 0.03125-0.085937 0.023438-0.16406 0.054688-0.23438 0.09375v-0.35938c0.10156-0.03125 0.20703-0.050781 0.3125-0.0625 0.10156-0.007813 0.20312-0.015625 0.29688-0.015625 0.26953 0 0.46094 0.054688 0.57812 0.15625 0.125 0.10547 0.1875 0.27734 0.1875 0.51562z"/>
  </symbol>
  <symbol id="d" overflow="visible">
   <path d="m0.75-1.9219v0.42188h0.5v0.34375h-0.5v0.64062c0 0.0625 0.007812 0.10938 0.03125 0.14062 0.03125 0.023438 0.085938 0.03125 0.17188 0.03125h0.25v0.34375h-0.40625c-0.1875 0-0.32422-0.035156-0.40625-0.10938-0.074219-0.082031-0.10938-0.21875-0.10938-0.40625v-0.64062h-0.25v-0.34375h0.25v-0.42188z"/>
  </symbol>
  <symbol id="k" overflow="visible">
   <path d="m1.25-1.2812v-0.79688h0.48438v2.0781h-0.48438v-0.21875c-0.074219 0.09375-0.15234 0.16406-0.23438 0.20312-0.074219 0.03125-0.16406 0.046875-0.26562 0.046875-0.17969 0-0.32812-0.070312-0.45312-0.21875-0.11719-0.14453-0.17188-0.33203-0.17188-0.5625 0-0.22656 0.054688-0.41406 0.17188-0.5625 0.125-0.14453 0.27344-0.21875 0.45312-0.21875 0.10156 0 0.19141 0.023438 0.26562 0.0625 0.082031 0.042969 0.16016 0.10547 0.23438 0.1875zm-0.3125 0.96875c0.09375 0 0.16406-0.035156 0.21875-0.10938 0.0625-0.070313 0.09375-0.17969 0.09375-0.32812 0-0.13281-0.03125-0.23828-0.09375-0.3125-0.054688-0.082031-0.125-0.125-0.21875-0.125-0.10547 0-0.18359 0.042969-0.23438 0.125-0.054687 0.074219-0.078125 0.17969-0.078125 0.3125 0 0.14844 0.023438 0.25781 0.078125 0.32812 0.050781 0.074219 0.12891 0.10938 0.23438 0.10938z"/>
  </symbol>
  <symbol id="j" overflow="visible">
   <path d="m1.0312-0.3125c0.09375 0 0.16406-0.035156 0.21875-0.10938 0.0625-0.070313 0.09375-0.17969 0.09375-0.32812 0-0.13281-0.03125-0.23828-0.09375-0.3125-0.054688-0.082031-0.125-0.125-0.21875-0.125-0.10547 0-0.1875 0.042969-0.25 0.125-0.054688 0.074219-0.078125 0.17969-0.078125 0.3125 0 0.14844 0.023437 0.25781 0.078125 0.32812 0.0625 0.074219 0.14453 0.10938 0.25 0.10938zm-0.32812-0.96875c0.070313-0.082031 0.14453-0.14453 0.21875-0.1875 0.082031-0.039062 0.17578-0.0625 0.28125-0.0625 0.1875 0 0.33594 0.074219 0.45312 0.21875 0.11328 0.14844 0.17188 0.33594 0.17188 0.5625 0 0.23047-0.058594 0.41797-0.17188 0.5625-0.11719 0.14844-0.26562 0.21875-0.45312 0.21875-0.10547 0-0.19922-0.015625-0.28125-0.046875-0.074219-0.039062-0.14844-0.10938-0.21875-0.20312v0.21875h-0.46875v-2.0781h0.46875z"/>
  </symbol>
  <symbol id="i" overflow="visible">
   <path d="m0.03125-1.5h0.48438l0.39062 1.0156 0.34375-1.0156h0.48438l-0.625 1.6406c-0.0625 0.16406-0.14062 0.28125-0.23438 0.34375-0.085938 0.070313-0.19531 0.10938-0.32812 0.10938h-0.26562v-0.3125h0.14062c0.082031 0 0.14062-0.015625 0.17188-0.046875 0.039062-0.023437 0.070312-0.070313 0.09375-0.14062l0.015625-0.03125z"/>
  </symbol>
  <symbol id="c" overflow="visible">
   <path d="m1.3906-1.4531v0.375c-0.09375-0.050781-0.19531-0.085937-0.29688-0.10938-0.09375-0.019531-0.18359-0.03125-0.26562-0.03125-0.085937 0-0.15234 0.015625-0.20312 0.046875-0.042969 0.023437-0.0625 0.054687-0.0625 0.09375 0 0.042969 0.015625 0.074219 0.046875 0.09375 0.03125 0.023437 0.09375 0.039063 0.1875 0.046875l0.078125 0.015625c0.25 0.03125 0.41406 0.085937 0.5 0.15625 0.082031 0.0625 0.125 0.17188 0.125 0.32812s-0.0625 0.27734-0.1875 0.35938c-0.11719 0.074219-0.28906 0.10938-0.51562 0.10938-0.10547 0-0.21094-0.011719-0.3125-0.03125-0.10547-0.0078125-0.21094-0.03125-0.3125-0.0625v-0.35938c0.09375 0.054687 0.1875 0.089844 0.28125 0.10938 0.10156 0.023438 0.20703 0.03125 0.3125 0.03125 0.09375 0 0.16016-0.007812 0.20312-0.03125 0.050781-0.03125 0.078125-0.070312 0.078125-0.125 0-0.039062-0.015625-0.070312-0.046875-0.09375-0.03125-0.019531-0.10156-0.035156-0.20312-0.046875l-0.078125-0.015625c-0.21875-0.019531-0.37109-0.066406-0.45312-0.14062-0.085937-0.070313-0.125-0.17969-0.125-0.32812 0-0.15625 0.050781-0.26953 0.15625-0.34375 0.11328-0.082031 0.28125-0.125 0.5-0.125 0.09375 0 0.1875 0.011719 0.28125 0.03125 0.10156 0.011719 0.20703 0.027344 0.3125 0.046875z"/>
  </symbol>
  <symbol id="b" overflow="visible">
   <path d="m1.7344-0.90625v0.90625h-0.48438v-0.6875c0-0.13281-0.007812-0.22266-0.015625-0.26562 0-0.050781-0.007813-0.09375-0.015625-0.125-0.023438-0.03125-0.046875-0.050781-0.078125-0.0625-0.03125-0.019531-0.070313-0.03125-0.10938-0.03125-0.10547 0-0.1875 0.042969-0.25 0.125-0.054688 0.074219-0.078125 0.17969-0.078125 0.3125v0.73438h-0.46875v-2.0781h0.46875v0.79688c0.070313-0.082031 0.14844-0.14453 0.23438-0.1875 0.082031-0.039062 0.17188-0.0625 0.26562-0.0625 0.17578 0 0.30469 0.054688 0.39062 0.15625 0.09375 0.10547 0.14062 0.26172 0.14062 0.46875z"/>
  </symbol>
  <symbol id="h" overflow="visible">
   <path d="m1.7344-0.90625v0.90625h-0.48438v-0.70312c0-0.125-0.007812-0.20703-0.015625-0.25 0-0.050781-0.007813-0.09375-0.015625-0.125-0.023438-0.03125-0.046875-0.050781-0.078125-0.0625-0.03125-0.019531-0.070313-0.03125-0.10938-0.03125-0.10547 0-0.1875 0.042969-0.25 0.125-0.054688 0.074219-0.078125 0.17969-0.078125 0.3125v0.73438h-0.46875v-1.5h0.46875v0.21875c0.070313-0.082031 0.14844-0.14453 0.23438-0.1875 0.082031-0.039062 0.17188-0.0625 0.26562-0.0625 0.17578 0 0.30469 0.054688 0.39062 0.15625 0.09375 0.10547 0.14062 0.26172 0.14062 0.46875z"/>
  </symbol>
  <symbol id="u" overflow="visible">
   <path d="m0.23438-2.0781h0.46875v1.125l0.54688-0.54688h0.5625l-0.73438 0.6875 0.79688 0.8125h-0.57812l-0.59375-0.625v0.625h-0.46875z"/>
  </symbol>
  <symbol id="t" overflow="visible">
   <path d="m0.23438-1.5h0.46875v1.5h-0.46875zm0-0.57812h0.46875v0.39062h-0.46875z"/>
  </symbol>
  <symbol id="s" overflow="visible">
   <path d="m1.25-0.25c-0.074219 0.085938-0.15234 0.14844-0.23438 0.1875-0.074219 0.042969-0.16406 0.0625-0.26562 0.0625-0.17969 0-0.32812-0.070312-0.45312-0.21875-0.11719-0.14453-0.17188-0.32812-0.17188-0.54688s0.054688-0.39844 0.17188-0.54688c0.125-0.14453 0.27344-0.21875 0.45312-0.21875 0.10156 0 0.19141 0.023438 0.26562 0.0625 0.082031 0.042969 0.16016 0.10547 0.23438 0.1875v-0.21875h0.48438v1.3438c0 0.23828-0.078125 0.42188-0.23438 0.54688-0.15625 0.13281-0.375 0.20312-0.65625 0.20312-0.09375 0-0.1875-0.011719-0.28125-0.03125-0.085938-0.011719-0.16797-0.03125-0.25-0.0625v-0.375c0.082031 0.050781 0.16016 0.085938 0.23438 0.10938 0.082031 0.03125 0.16406 0.046875 0.25 0.046875 0.15625 0 0.26953-0.039062 0.34375-0.10938 0.070313-0.074219 0.10938-0.17969 0.10938-0.32812zm-0.3125-0.9375c-0.10547 0-0.18359 0.039062-0.23438 0.10938-0.054687 0.074219-0.078125 0.17969-0.078125 0.3125 0 0.13672 0.023438 0.24219 0.078125 0.3125 0.050781 0.074219 0.12891 0.10938 0.23438 0.10938 0.09375 0 0.16406-0.035156 0.21875-0.10938 0.0625-0.070313 0.09375-0.17578 0.09375-0.3125 0-0.13281-0.03125-0.23828-0.09375-0.3125-0.054688-0.070313-0.125-0.10938-0.21875-0.10938z"/>
  </symbol>
  <symbol id="r" overflow="visible">
   <path d="m1.2188-2.0781v0.3125h-0.26562c-0.074219 0-0.125 0.015625-0.15625 0.046875-0.023437 0.023438-0.03125 0.0625-0.03125 0.125v0.09375h0.40625v0.34375h-0.40625v1.1562h-0.46875v-1.1562h-0.25v-0.34375h0.25v-0.09375c0-0.16406 0.039063-0.28516 0.125-0.35938 0.09375-0.082031 0.23438-0.125 0.42188-0.125z"/>
  </symbol>
  <symbol id="g" overflow="visible">
   <path d="m0.9375-1.1875c-0.10547 0-0.1875 0.039062-0.25 0.10938-0.054688 0.074219-0.078125 0.18359-0.078125 0.32812 0 0.14844 0.023437 0.26172 0.078125 0.34375 0.0625 0.074219 0.14453 0.10938 0.25 0.10938 0.10156 0 0.17969-0.035156 0.23438-0.10938 0.0625-0.082031 0.09375-0.19531 0.09375-0.34375 0-0.14453-0.03125-0.25391-0.09375-0.32812-0.054687-0.070313-0.13281-0.10938-0.23438-0.10938zm0-0.34375c0.25781 0 0.46094 0.074219 0.60938 0.21875 0.14453 0.13672 0.21875 0.32422 0.21875 0.5625 0 0.25-0.074219 0.44531-0.21875 0.57812-0.14844 0.13672-0.35156 0.20312-0.60938 0.20312-0.26172 0-0.46484-0.066406-0.60938-0.20312-0.13672-0.13281-0.20312-0.32812-0.20312-0.57812 0-0.23828 0.066406-0.42578 0.20312-0.5625 0.14453-0.14453 0.34766-0.21875 0.60938-0.21875z"/>
  </symbol>
  <symbol id="q" overflow="visible">
   <path d="m1.6094-1.25c0.0625-0.09375 0.13281-0.16016 0.21875-0.20312 0.082031-0.050781 0.17578-0.078125 0.28125-0.078125 0.16406 0 0.29688 0.054688 0.39062 0.15625 0.09375 0.10547 0.14062 0.26172 0.14062 0.46875v0.90625h-0.48438v-0.78125-0.03125-0.0625c0-0.10156-0.015625-0.17578-0.046875-0.21875-0.03125-0.050781-0.085937-0.078125-0.15625-0.078125-0.085937 0-0.15234 0.039063-0.20312 0.10938-0.054688 0.074219-0.078125 0.18359-0.078125 0.32812v0.73438h-0.48438v-0.78125c0-0.16406-0.015625-0.26953-0.046875-0.3125-0.023437-0.050781-0.070313-0.078125-0.14062-0.078125-0.09375 0-0.16797 0.042969-0.21875 0.125-0.054688 0.074219-0.078125 0.17969-0.078125 0.3125v0.73438h-0.46875v-1.5h0.46875v0.21875c0.0625-0.082031 0.12891-0.14453 0.20312-0.1875 0.082031-0.039062 0.16406-0.0625 0.25-0.0625 0.10156 0 0.19141 0.027344 0.26562 0.078125 0.082031 0.054687 0.14453 0.12109 0.1875 0.20312z"/>
  </symbol>
  <symbol id="p" overflow="visible">
   <path d="m0.25-2h0.57812l0.71875 1.375v-1.375h0.48438v2h-0.5625l-0.73438-1.375v1.375h-0.48438z"/>
  </symbol>
  <symbol id="o" overflow="visible">
   <path d="m0.21875-0.57812v-0.92188h0.46875v0.15625 0.3125 0.23438 0.26562c0.007812 0.054688 0.023438 0.089844 0.046875 0.10938 0.019531 0.03125 0.046875 0.058594 0.078125 0.078125 0.03125 0.011719 0.066406 0.015625 0.10938 0.015625 0.09375 0 0.16406-0.035156 0.21875-0.10938 0.0625-0.070312 0.09375-0.17578 0.09375-0.3125v-0.75h0.48438v1.5h-0.48438v-0.21875c-0.074219 0.09375-0.15234 0.16406-0.23438 0.20312-0.074219 0.03125-0.15625 0.046875-0.25 0.046875-0.17969 0-0.3125-0.050781-0.40625-0.15625-0.085938-0.10156-0.125-0.25391-0.125-0.45312z"/>
  </symbol>
  <symbol id="n" overflow="visible">
   <path d="m0.25-2h0.85938c0.25 0 0.44141 0.058594 0.57812 0.17188 0.13281 0.11719 0.20312 0.27734 0.20312 0.48438 0 0.21094-0.070313 0.37109-0.20312 0.48438-0.13672 0.11719-0.32812 0.17188-0.57812 0.17188h-0.34375v0.6875h-0.51562zm0.51562 0.375v0.5625h0.28125c0.10156 0 0.17969-0.019531 0.23438-0.0625 0.050781-0.050781 0.078125-0.125 0.078125-0.21875s-0.027344-0.16016-0.078125-0.20312c-0.054688-0.050781-0.13281-0.078125-0.23438-0.078125z"/>
  </symbol>
  <symbol id="m" overflow="visible">
   <path d="m0.23438-1.5h0.46875v1.4688c0 0.20703-0.046875 0.36328-0.14062 0.46875-0.09375 0.10156-0.23438 0.15625-0.42188 0.15625h-0.23438v-0.3125h0.078125c0.09375 0 0.15625-0.023438 0.1875-0.0625 0.039063-0.042969 0.0625-0.125 0.0625-0.25zm0-0.57812h0.46875v0.39062h-0.46875z"/>
  </symbol>
  <symbol id="l" overflow="visible">
   <path d="m1.4375-1.4531v0.39062c-0.0625-0.039062-0.13281-0.070312-0.20312-0.09375-0.0625-0.019531-0.13281-0.03125-0.20312-0.03125-0.125 0-0.23047 0.042969-0.3125 0.125-0.074219 0.074219-0.10938 0.17969-0.10938 0.3125 0 0.14844 0.035156 0.26172 0.10938 0.34375 0.082031 0.074219 0.1875 0.10938 0.3125 0.10938 0.082031 0 0.15625-0.007813 0.21875-0.03125 0.070312-0.03125 0.13281-0.066406 0.1875-0.10938v0.39062c-0.074219 0.03125-0.15234 0.050781-0.23438 0.0625-0.074219 0.0078125-0.14844 0.015625-0.21875 0.015625-0.27344 0-0.48438-0.066406-0.64062-0.20312-0.14844-0.13281-0.21875-0.32812-0.21875-0.57812 0-0.23828 0.070312-0.42578 0.21875-0.5625 0.15625-0.14453 0.36719-0.21875 0.64062-0.21875 0.070313 0 0.14453 0.011719 0.21875 0.03125 0.082031 0.011719 0.16016 0.027344 0.23438 0.046875z"/>
  </symbol>
 </defs>
 <g>
  <path d="m138.47 492.79v-57.914-91.438c0-7.1641-0.32812-14.383 0.054688-21.547-0.21875 1.4766-0.38281 2.8984-0.60156 4.375 0.10938-0.76562 0.27344-1.3672 0.49219-2.0781-0.54687 1.3125-1.0938 2.625-1.6406 3.9375 0.16406-0.4375 0.38281-0.875 0.60156-1.2578-1.8594 2.2422-2.3516 2.8984-1.4766 1.9688 0.92969-0.875 0.27344-0.38281-1.9688 1.4766 0.38281-0.27344 0.82031-0.49219 1.2578-0.65625l-3.9375 1.6406c0.71094-0.27344 1.3672-0.38281 2.1328-0.49219-1.4766 0.21875-2.8984 0.38281-4.375 0.60156 11.102-1.0938 22.258-2.1875 33.359-3.3359 26.578-2.625 53.156-5.3047 79.734-7.9297 31.828-3.1719 63.711-6.3438 95.539-9.5156 26.797-2.6797 53.594-5.3047 80.391-7.9844 11.922-1.2031 23.844-2.2969 35.766-3.5547 3.7188-0.38281 6.0703-0.65625 9.3516-2.5156 5.9609-3.3906 9.6797-10.008 9.5703-16.844-0.10938-8.2031-5.6328-15.641-13.508-18.047-1.75-0.54688-3.6094-0.65625-5.4688-0.875-1.0391-0.10938-2.1328-0.21875-3.1719-0.32813-6.1797-0.60156-12.414-1.2578-18.594-1.8594l-72.844-7.2188c-31.445-3.1172-62.836-6.2344-94.281-9.3516-28.766-2.8438-57.586-5.7422-86.352-8.5859-15.805-1.5859-31.555-3.1172-47.359-4.7031-0.71094-0.054687-1.4219-0.16406-2.1875-0.21875 1.4766 0.21875 2.8984 0.38281 4.375 0.60156-0.76562-0.10938-1.3672-0.27344-2.1328-0.49219 1.3125 0.54687 2.625 1.0938 3.9375 1.6406-0.4375-0.16406-0.875-0.38281-1.2578-0.65625 2.2422 1.8594 2.8984 2.3516 1.9688 1.4766-0.875-0.92969-0.38281-0.27344 1.4766 1.9688-0.27344-0.38281-0.4375-0.82031-0.60156-1.2578l1.6406 3.9375c-0.21875-0.71094-0.38281-1.3672-0.49219-2.0781 0.21875 1.4766 0.38281 2.8984 0.60156 4.375-0.27344-5.8516-0.054688-11.758-0.054688-17.609v-40.523-91.93c0-7.1641-0.27344-14.383 0.054688-21.547-0.21875 1.4766-0.38281 2.8984-0.60156 4.375 0.10937-0.71094 0.21875-1.3672 0.49219-2.0234l-1.6406 3.9375c0.16406-0.4375 0.38281-0.82031 0.60156-1.2031-1.9141 2.2969-2.4609 2.9531-1.5859 2.0234 0.82031-0.82031-4.0469 2.4609-0.92969 0.875-1.3125 0.54687-2.625 1.0938-3.9375 1.6406 0.82031-0.32812 1.6406-0.54687 2.5156-0.71094-1.4766 0.21875-2.8984 0.38281-4.375 0.60156 0.71094-0.054688 1.3125 0 2.0234 0.10937-1.4766-0.21875-2.8984-0.38281-4.375-0.60156 0.4375 0.10938 0.92969 0.21875 1.3672 0.38281-1.3125-0.54687-2.625-1.0938-3.9375-1.6406 4.2109 1.8047 8.3125 3.9922 12.469 5.9609 10.773 5.1953 21.547 10.445 32.375 15.641 15.914 7.6562 31.773 15.367 47.688 23.023 19.359 9.3516 38.773 18.703 58.133 28.109 21.273 10.281 42.602 20.562 63.875 30.844 21.438 10.391 42.93 20.727 64.367 31.117 19.852 9.625 39.758 19.195 59.609 28.82 16.789 8.0938 33.523 16.188 50.312 24.336 11.867 5.7422 23.789 11.484 35.656 17.227 5.4141 2.625 10.828 5.1406 16.242 7.8203 0.10938 0.054687 0.27344 0.10938 0.38281 0.16406 0 0 0.054688 0 0.054688 0.054687 2.2422 0.875-2.625-2.4609-1.4219-1.2578 0.54688 0.54688 1.5312 1.75-0.27344-0.49219-1.8047-2.2969-0.71094-0.82031-0.38281-0.10938l-1.6406-3.9375c0.21875 0.60156 0.32812 1.0938 0.49219 1.6953-0.21875-1.4766-0.38281-2.8984-0.60156-4.375 0.10938 0.82031 0.10938 1.5859 0 2.3516 0.21875-1.4766 0.38281-2.8984 0.60156-4.375-0.10938 0.60156-0.27344 1.1484-0.49219 1.6953l1.6406-3.9375c-0.10938 0.27344-0.4375 0.76562-0.54688 1.0938 0.71094-2.5703 2.6797-3.0078 1.4219-1.8594-1.5859 1.4766 1.75-1.4219 1.8047-1.3672-20.836-11.812-0.38281 0.21875-0.60156 0.32812 0 0-0.054688 0-0.054688 0.054688-0.16406 0.054687-0.27344 0.10937-0.4375 0.21875-0.65625 0.32812-1.3125 0.65625-1.9688 0.98437-2.7344 1.3125-5.5234 2.6797-8.2578 3.9922-10.5 5.0859-21 10.172-31.5 15.203-15.695 7.6016-31.391 15.148-47.086 22.75-19.25 9.2969-38.5 18.594-57.805 27.891-21.219 10.281-42.492 20.508-63.711 30.789-21.492 10.391-42.984 20.781-64.477 31.117-19.961 9.6797-39.977 19.305-59.938 28.984-16.953 8.2031-33.906 16.406-50.859 24.555-12.141 5.8516-24.281 11.703-36.422 17.609-5.7422 2.7891-11.484 5.5781-17.227 8.3125-0.4375 0.21875-0.875 0.4375-1.3672 0.60156l3.9375-1.6406c-0.4375 0.16406-0.875 0.27344-1.3672 0.38281 1.4766-0.21875 2.8984-0.38281 4.375-0.60156-0.71094 0.10938-1.3125 0.10938-2.0234 0.10938 1.4766 0.21875 2.8984 0.38281 4.375 0.60156-0.875-0.10937-1.6953-0.32812-2.5156-0.71094l3.9375 1.6406c-3.0625-1.5859 1.75 1.6406 0.92969 0.875-0.875-0.92969-0.38281-0.27344 1.5859 2.0234-0.21875-0.38281-0.4375-0.76563-0.60156-1.2031 0.54687 1.3125 1.0938 2.625 1.6406 3.9375-0.21875-0.71094-0.38281-1.3125-0.49219-2.0234 0.21875 1.4766 0.38281 2.8984 0.60156 4.375-0.054688-0.32812-0.054688-0.54688-0.054688-0.82031-0.38281-8.5859-7.2734-16.789-16.406-16.406-8.5312 0.38281-16.844 7.2188-16.406 16.406 0.27344 6.5625 2.5703 12.742 7.3828 17.336 4.5938 4.4297 11.32 7.1641 17.719 6.7266 4.0469-0.27344 7.2734-1.3672 10.938-3.0625 1.0938-0.49219 2.1328-1.0391 3.2266-1.5859 5.4688-2.625 10.938-5.3047 16.461-7.9297 9.1875-4.4297 18.43-8.9141 27.617-13.344 12.25-5.9062 24.5-11.867 36.75-17.773 14.438-6.9453 28.82-13.945 43.258-20.891 15.969-7.7109 31.883-15.422 47.852-23.133 16.57-7.9844 33.141-16.023 49.711-24.008 16.57-7.9844 33.141-16.023 49.711-24.008 15.641-7.5469 31.281-15.094 46.922-22.695 14.055-6.7812 28.109-13.562 42.109-20.344 11.703-5.6875 23.461-11.32 35.164-17.008 8.5312-4.1016 17.062-8.2578 25.594-12.359 4.6484-2.2422 9.2969-4.4844 13.945-6.7266 0.60156-0.27344 1.2031-0.54688 1.8047-0.875 16.352-8.6953 16.352-33.742-0.16406-42.273-3.0625-1.5859-6.1797-3.0078-9.2969-4.4844-7.2734-3.5-14.492-7-21.766-10.5-10.719-5.1953-21.438-10.336-32.156-15.531-13.289-6.4531-26.578-12.852-39.922-19.305-15.148-7.3281-30.352-14.656-45.5-21.984-16.352-7.9297-32.703-15.805-49.109-23.734-16.625-8.0391-33.25-16.078-49.875-24.117-16.297-7.875-32.539-15.75-48.836-23.625-15.039-7.2734-30.023-14.492-45.062-21.766l-39.375-19.031c-10.336-4.9766-20.672-10.008-31.008-14.984-6.8906-3.3359-13.781-6.6719-20.672-9.9531-2.5703-1.2578-5.1953-2.5703-7.8203-3.7734-3.9375-1.8047-7.9297-3.2266-12.359-3.0078-6.3984 0.32813-12.961 2.9531-17.172 7.9844-4.0469 4.8672-6.1797 10.281-6.2891 16.68-0.054688 2.8984 0 5.7969 0 8.6953v40.961 54.359 47.141c0 9.5156-1.4219 20.727 2.7891 29.531 2.7344 5.7969 8.6406 10.5 14.766 12.141 1.9141 0.49219 3.9375 0.65625 5.9062 0.875 0.4375 0.054688 0.875 0.10938 1.3125 0.10938 2.2969 0.21875 4.6484 0.4375 6.9453 0.71094 9.4609 0.92969 18.867 1.8594 28.328 2.7891 14.273 1.4219 28.602 2.8438 42.875 4.2656 17.336 1.6953 34.672 3.4453 52.008 5.1406 18.32 1.8047 36.641 3.6641 54.961 5.4688 17.555 1.75 35.164 3.5 52.719 5.25 14.766 1.4766 29.531 2.9531 44.242 4.375 10.172 0.98438 20.344 2.0234 30.516 3.0078 3.6094 0.38281 7.2188 0.71094 10.828 1.0938-1.4766-0.21875-2.8984-0.38281-4.375-0.60156 0.38281 0.054687 0.71094 0.10938 1.0391 0.27344-1.3125-0.54687-2.625-1.0938-3.9375-1.6406-4.375-5.4688-5.9609-7-4.6484-4.5391-0.54688-1.3125-1.0938-2.625-1.6406-3.9375 0.10938 0.27344 0.16406 0.60156 0.21875 0.875-0.21875-1.4766-0.38281-2.8984-0.60156-4.375v0.4375c0.21875-1.4766 0.38281-2.8984 0.60156-4.375 0 0.32812-0.10937 0.60156-0.21875 0.875 0.54688-1.3125 1.0938-2.625 1.6406-3.9375-1.3125 2.4609 0.27344 0.92969 4.6484-4.5391 1.3125-0.54687 2.625-1.0938 3.9375-1.6406-0.32812 0.16406-0.65625 0.27344-1.0391 0.27344 1.4766-0.21875 2.8984-0.38281 4.375-0.60156-6.6719 0.65625-13.344 1.3125-20.016 1.9688-16.953 1.6953-33.961 3.3906-50.914 5.0312-22.914 2.2969-45.828 4.5391-68.688 6.8359-24.227 2.4062-48.398 4.8125-72.625 7.2188-21.164 2.0781-42.273 4.2109-63.438 6.2891-13.617 1.3672-27.289 2.7344-40.906 4.0469-2.625 0.27344-5.25 0.49219-7.875 0.76562-0.10938 0-0.21875 0-0.32812 0.054688-4.375 0.49219-8.4766 1.2578-12.195 3.7734-4.7031 3.2266-8.3125 7.6016-10.008 13.125-0.92969 2.8984-1.0938 5.9609-1.0938 9.0234v46.375 71.695 47.797 2.4062c0 8.5859 7.5469 16.789 16.406 16.406 8.9688-0.16406 16.516-6.9453 16.516-16.188z"/>
  <use x="70" y="568.203125" xlink:href="#v"/>
  <use x="72.007812" y="568.203125" xlink:href="#f"/>
  <use x="73.355469" y="568.203125" xlink:href="#a"/>
  <use x="75.210937" y="568.203125" xlink:href="#e"/>
  <use x="77.054688" y="568.203125" xlink:href="#d"/>
  <use x="78.363281" y="568.203125" xlink:href="#a"/>
  <use x="80.214844" y="568.203125" xlink:href="#k"/>
  <use x="83.125" y="568.203125" xlink:href="#j"/>
  <use x="85.082031" y="568.203125" xlink:href="#i"/>
  <use x="87.816406" y="568.203125" xlink:href="#c"/>
  <use x="89.445312" y="568.203125" xlink:href="#b"/>
  <use x="91.390625" y="568.203125" xlink:href="#e"/>
  <use x="93.238281" y="568.203125" xlink:href="#c"/>
  <use x="94.863281" y="568.203125" xlink:href="#b"/>
  <use x="96.8125" y="568.203125" xlink:href="#e"/>
  <use x="98.65625" y="568.203125" xlink:href="#h"/>
  <use x="100.601562" y="568.203125" xlink:href="#u"/>
  <use x="103.375" y="568.203125" xlink:href="#c"/>
  <use x="105" y="568.203125" xlink:href="#t"/>
  <use x="105.9375" y="568.203125" xlink:href="#h"/>
  <use x="107.882812" y="568.203125" xlink:href="#s"/>
  <use x="109.84375" y="568.203125" xlink:href="#b"/>
  <use x="70" y="570.9375" xlink:href="#r"/>
  <use x="71.191406" y="570.9375" xlink:href="#f"/>
  <use x="72.539062" y="570.9375" xlink:href="#g"/>
  <use x="74.417969" y="570.9375" xlink:href="#q"/>
  <use x="78.21875" y="570.9375" xlink:href="#d"/>
  <use x="79.523438" y="570.9375" xlink:href="#b"/>
  <use x="81.472656" y="570.9375" xlink:href="#a"/>
  <use x="84.277344" y="570.9375" xlink:href="#p"/>
  <use x="86.566406" y="570.9375" xlink:href="#g"/>
  <use x="88.445312" y="570.9375" xlink:href="#o"/>
  <use x="90.390625" y="570.9375" xlink:href="#h"/>
  <use x="93.289062" y="570.9375" xlink:href="#n"/>
  <use x="95.292969" y="570.9375" xlink:href="#f"/>
  <use x="96.644531" y="570.9375" xlink:href="#g"/>
  <use x="98.519531" y="570.9375" xlink:href="#m"/>
  <use x="99.457031" y="570.9375" xlink:href="#a"/>
  <use x="101.3125" y="570.9375" xlink:href="#l"/>
  <use x="102.933594" y="570.9375" xlink:href="#d"/>
 </g>
</svg>